<svg xmlns="http://www.w3.org/2000/svg" xmlns:xlink="http://www.w3.org/1999/xlink" width="1080" zoomAndPan="magnify" viewBox="0 0 810 809.999993" height="1080" preserveAspectRatio="xMidYMid meet" version="1.0"><defs><clipPath id="8e2a392026"><path d="M 169.269531 59.917969 L 688.585938 59.917969 L 688.585938 618 L 169.269531 618 Z M 169.269531 59.917969 " clip-rule="nonzero"/></clipPath><clipPath id="d8acdd3abe"><path d="M 688.585938 457.511719 L 688.585938 478.84375 L 661.324219 478.84375 C 648.527344 502.894531 626.144531 536.789062 588.316406 564.675781 C 490.28125 636.953125 333.65625 635.621094 247.496094 554.402344 C 218.308594 526.890625 203.5625 496.203125 196.53125 478.84375 L 169.269531 478.84375 L 169.269531 457.511719 Z M 630.738281 444.71875 L 285.402344 444.71875 C 278.542969 427.148438 243.621094 332.546875 290.023438 227.472656 C 332.417969 131.46875 414.1875 91.308594 443.535156 79.296875 L 443.535156 59.917969 L 460.871094 59.917969 L 460.871094 76.09375 Z M 443.535156 415.394531 L 443.535156 105.4375 C 432.601562 148.195312 423.164062 203.898438 424.066406 269.074219 C 424.863281 326.558594 433.492188 376.136719 443.535156 415.394531 Z M 443.535156 415.394531 " clip-rule="nonzero"/></clipPath></defs><rect x="-81" width="972" fill="#ffffff" y="-80.999999" height="971.999992" fill-opacity="1"/><rect x="-81" width="972" fill="#ffffff" y="-80.999999" height="971.999992" fill-opacity="1"/><g clip-path="url(#8e2a392026)"><g clip-path="url(#d8acdd3abe)"><path fill="#4594fc" d="M 169.269531 59.917969 L 688.585938 59.917969 L 688.585938 617.125 L 169.269531 617.125 Z M 169.269531 59.917969 " fill-opacity="1" fill-rule="nonzero"/></g></g></svg>